<svg width="30" height="22" viewBox="0 0 30 22" fill="none" xmlns="http://www.w3.org/2000/svg">
<path d="M10.9091 0H30V2.72727H10.9091V0ZM10.9091 5.45455H21.8182V8.18182H10.9091V5.45455ZM10.9091 19.0909H21.8182V21.8182H10.9091V19.0909ZM10.9091 13.6364H30V16.3636H10.9091V13.6364ZM4.09091 0C3.28181 0 2.49087 0.239928 1.81812 0.689443C1.14538 1.13896 0.621035 1.77787 0.311404 2.52539C0.00177253 3.2729 -0.0792411 4.09545 0.0786075 4.88901C0.236456 5.68256 0.626077 6.41149 1.1982 6.98362C1.77033 7.55574 2.49926 7.94536 3.29281 8.10321C4.08637 8.26106 4.90892 8.18005 5.65643 7.87042C6.40395 7.56078 7.04286 7.03644 7.49238 6.3637C7.94189 5.69095 8.18182 4.90001 8.18182 4.09091C8.18182 3.00593 7.75081 1.96539 6.98362 1.1982C6.21643 0.431005 5.17589 0 4.09091 0ZM4.09091 5.45455C3.82121 5.45455 3.55756 5.37457 3.33332 5.22473C3.10907 5.07489 2.93429 4.86192 2.83107 4.61275C2.72786 4.36358 2.70086 4.0894 2.75348 3.82488C2.80609 3.56036 2.93597 3.31738 3.12667 3.12667C3.31738 2.93596 3.56036 2.80609 3.82488 2.75347C4.0894 2.70086 4.36358 2.72786 4.61275 2.83107C4.86192 2.93428 5.07489 3.10906 5.22473 3.33331C5.37457 3.55756 5.45455 3.82121 5.45455 4.09091C5.45455 4.45257 5.31088 4.79941 5.05515 5.05514C4.79942 5.31088 4.45257 5.45455 4.09091 5.45455ZM4.09091 13.6364C3.28181 13.6364 2.49087 13.8763 1.81812 14.3258C1.14538 14.7753 0.621035 15.4142 0.311404 16.1617C0.00177253 16.9093 -0.0792411 17.7318 0.0786075 18.5254C0.236456 19.3189 0.626077 20.0479 1.1982 20.62C1.77033 21.1921 2.49926 21.5817 3.29281 21.7396C4.08637 21.8974 4.90892 21.8164 5.65643 21.5068C6.40395 21.1971 7.04286 20.6728 7.49238 20.0001C7.94189 19.3273 8.18182 18.5364 8.18182 17.7273C8.18182 16.6423 7.75081 15.6018 6.98362 14.8346C6.21643 14.0674 5.17589 13.6364 4.09091 13.6364ZM4.09091 19.0909C3.82121 19.0909 3.55756 19.0109 3.33332 18.8611C3.10907 18.7113 2.93429 18.4983 2.83107 18.2491C2.72786 17.9999 2.70086 17.7258 2.75348 17.4612C2.80609 17.1967 2.93597 16.9537 3.12667 16.763C3.31738 16.5723 3.56036 16.4425 3.82488 16.3898C4.0894 16.3372 4.36358 16.3642 4.61275 16.4674C4.86192 16.5706 5.07489 16.7454 5.22473 16.9697C5.37457 17.1939 5.45455 17.4576 5.45455 17.7273C5.45455 18.0889 5.31088 18.4358 5.05515 18.6915C4.79942 18.9472 4.45257 19.0909 4.09091 19.0909Z" fill="#ED1C24"/>
</svg>
