<svg width="30" height="28" viewBox="0 0 30 28" fill="none" xmlns="http://www.w3.org/2000/svg">
<path d="M13.14 22.1914H2.14286V8.94643H22.1893V10.5889H24.3322L24.3354 1.67464H24.3332V1.67036H18.7864V0H16.6436V1.66929H7.69072V0H5.54786V1.66929H0V24.3343H13.14V22.1914ZM2.14286 6.80358V3.81429H5.54786V5.48679H7.69072V3.81536H16.6436V5.48679H18.7864V3.81536H22.1904V6.80143H2.14286V6.80358Z" fill="#ED1C24"/>
<path d="M21.7203 11.4062C17.1561 11.4062 13.4414 15.1198 13.4414 19.6852C13.4414 24.2505 17.1561 27.9641 21.7203 27.9641C26.2846 27.9641 30.0003 24.2505 30.0003 19.6852C30.0003 15.1198 26.2857 11.4062 21.7203 11.4062ZM15.5843 19.6852C15.5843 16.3016 18.3378 13.5491 21.7203 13.5491C25.1028 13.5491 27.8575 16.3016 27.8575 19.6852C27.8575 23.0677 25.1039 25.8213 21.7203 25.8213C18.3368 25.8213 15.5843 23.0677 15.5843 19.6852Z" fill="#ED1C24"/>
<path d="M26.8505 19.6826L23.0255 15.9326L21.5254 17.4648L22.704 18.6112H17.0469V20.754H22.704L21.5254 21.9005L23.0255 23.4326L26.8505 19.6826Z" fill="#ED1C24"/>
</svg>
