<svg width="30" height="30" viewBox="0 0 30 30" fill="none" xmlns="http://www.w3.org/2000/svg">
<path d="M21.645 5.5073L21.125 7.44868L22.5454 8.86967L24.4855 8.34962L25.0055 6.40829L23.585 4.9873L21.645 5.5073Z" fill="#ED1C24"/>
<path d="M27.8987 1.95407C26.57 0.66136 24.811 -0.0321386 22.943 0.0011447C21.074 0.0344866 19.3376 0.79168 18.0538 2.13309C17.0082 3.22564 16.3603 4.59611 16.1801 6.09643C15.9941 7.64528 15.2612 9.1289 14.1164 10.2742L13.871 10.5197L19.476 16.1252L19.7502 15.8509C20.8721 14.7286 22.3322 14.0215 23.9726 13.8061C25.4973 13.6059 26.8792 12.9239 27.9689 11.8338C29.2916 10.5106 30.0128 8.7513 29.9998 6.87994C29.9868 5.00899 29.2406 3.25956 27.8987 1.95407ZM26.8346 6.37313L26.0521 9.29473C26.0122 9.44377 25.9337 9.57968 25.8246 9.6888C25.7155 9.79791 25.5796 9.87639 25.4306 9.91633L22.51 10.6991C22.361 10.7391 22.204 10.7391 22.055 10.6992C21.9059 10.6592 21.77 10.5807 21.6609 10.4715L19.523 8.3328C19.4139 8.22371 19.3355 8.08785 19.2956 7.93887C19.2557 7.78988 19.2557 7.63301 19.2956 7.48402L20.078 4.56236C20.1179 4.41332 20.1964 4.27742 20.3055 4.16831C20.4145 4.0592 20.5504 3.98072 20.6994 3.94076L23.6199 3.15796C23.769 3.11796 23.926 3.11795 24.075 3.1579C24.2241 3.19785 24.36 3.27637 24.4691 3.38555L26.6071 5.52435C26.7162 5.63341 26.7946 5.76927 26.8346 5.91826C26.8745 6.06726 26.8745 6.22413 26.8346 6.37313ZM0.982808 24.2631C-0.327603 25.5738 -0.327603 27.7064 0.982808 29.0171C1.61765 29.6521 2.46186 30.0018 3.36004 30.0018C4.25816 30.0018 5.10243 29.6521 5.73727 29.0171L12.0525 22.7004L7.29854 17.946L0.982808 24.2631ZM12.0309 14.5153L13.7044 12.8417L17.1508 16.2882L15.4773 17.9617L12.0309 14.5153ZM9.51615 15.7278L8.54139 16.7028L13.2954 21.4573L14.2704 20.4821C14.6136 20.1389 14.6135 19.5824 14.2703 19.2392L10.7593 15.7278C10.416 15.3845 9.85942 15.3845 9.51615 15.7278Z" fill="#ED1C24"/>
</svg>
