<svg width="12" height="12" viewBox="0 0 12 12" fill="none" xmlns="http://www.w3.org/2000/svg">
<path d="M11.6484 1.40625H9.83182C9.66848 0.604875 8.95828 0 8.10938 0C7.26047 0 6.55027 0.604875 6.38693 1.40625H0.351562C0.157406 1.40625 0 1.56366 0 1.75781C0 1.95197 0.157406 2.10938 0.351562 2.10938H6.38693C6.55024 2.91075 7.26047 3.51562 8.10938 3.51562C8.95828 3.51562 9.66848 2.91075 9.83182 2.10938H11.6484C11.8426 2.10938 12 1.95197 12 1.75781C12 1.56366 11.8426 1.40625 11.6484 1.40625ZM8.10938 2.8125C7.52791 2.8125 7.05485 2.33953 7.05469 1.75812C7.05469 1.75802 7.05471 1.75793 7.05471 1.75781C7.05471 1.7577 7.05469 1.7576 7.05469 1.75751C7.05485 1.17609 7.52791 0.703125 8.10938 0.703125C8.69093 0.703125 9.16406 1.17626 9.16406 1.75781C9.16406 2.33937 8.69093 2.8125 8.10938 2.8125Z" fill="#818181"/>
<path d="M11.6484 5.64844H5.61307C5.44976 4.84706 4.73953 4.24219 3.89062 4.24219C3.04172 4.24219 2.33152 4.84706 2.16818 5.64844H0.351562C0.157406 5.64844 0 5.80584 0 6C0 6.19416 0.157406 6.35156 0.351562 6.35156H2.16818C2.33149 7.15294 3.04172 7.75781 3.89062 7.75781C4.73953 7.75781 5.44973 7.15294 5.61307 6.35156H11.6484C11.8426 6.35156 12 6.19416 12 6C12 5.80584 11.8426 5.64844 11.6484 5.64844ZM3.89062 7.05469C3.30916 7.05469 2.8361 6.58172 2.83594 6.0003C2.83594 6.00021 2.83596 6.00012 2.83596 6C2.83596 5.99988 2.83594 5.99979 2.83594 5.9997C2.8361 5.41828 3.30916 4.94531 3.89062 4.94531C4.47218 4.94531 4.94531 5.41845 4.94531 6C4.94531 6.58155 4.47218 7.05469 3.89062 7.05469Z" fill="#818181"/>
<path d="M11.6484 9.89062H9.83182C9.66851 9.08925 8.95828 8.48438 8.10938 8.48438C7.26047 8.48438 6.55027 9.08925 6.38693 9.89062H0.351562C0.157406 9.89062 0 10.048 0 10.2422C0 10.4363 0.157406 10.5938 0.351562 10.5938H6.38693C6.55024 11.3951 7.26047 12 8.10938 12C8.95828 12 9.66848 11.3951 9.83182 10.5938H11.6484C11.8426 10.5938 12 10.4363 12 10.2422C12 10.048 11.8426 9.89062 11.6484 9.89062ZM8.10938 11.2969C7.52791 11.2969 7.05485 10.8239 7.05469 10.2425C7.05469 10.2424 7.05471 10.2423 7.05471 10.2422C7.05471 10.2421 7.05469 10.242 7.05469 10.2419C7.05485 9.66047 7.52791 9.1875 8.10938 9.1875C8.69093 9.1875 9.16406 9.66063 9.16406 10.2422C9.16406 10.8237 8.69093 11.2969 8.10938 11.2969Z" fill="#818181"/>
</svg>
