<svg width="12" height="12" viewBox="0 0 12 12" fill="none" xmlns="http://www.w3.org/2000/svg">
<path fill-rule="evenodd" clip-rule="evenodd" d="M4.80049 0C3.25409 0 2.00049 1.2536 2.00049 2.8C2.00049 4.3464 3.25409 5.6 4.80049 5.6C6.34689 5.6 7.60049 4.3464 7.60049 2.8C7.60049 1.2536 6.34689 0 4.80049 0ZM2.80049 2.8C2.80049 1.69544 3.69593 0.8 4.80049 0.8C5.90505 0.8 6.80049 1.69544 6.80049 2.8C6.80049 3.90456 5.90505 4.8 4.80049 4.8C3.69593 4.8 2.80049 3.90456 2.80049 2.8Z" fill="#818181"/>
<path d="M10.0433 6.69468C10.2061 6.84412 10.4591 6.83334 10.6085 6.67064L11.8942 5.27064C12.0347 5.11764 12.0347 4.88252 11.8942 4.72952L10.6085 3.32952C10.4591 3.1668 10.2061 3.15604 10.0433 3.30546C9.88063 3.4549 9.86985 3.70792 10.0193 3.87064L10.6892 4.60008H7.99961C7.77869 4.60008 7.59961 4.77916 7.59961 5.00008C7.59961 5.221 7.77869 5.40008 7.99961 5.40008H10.6892L10.0193 6.12952C9.86985 6.29222 9.88063 6.54526 10.0433 6.69468Z" fill="#818181"/>
<path d="M3.50588 6.3999C1.56964 6.3999 0 7.96954 0 9.90578C0 11.0623 0.937568 11.9999 2.09412 11.9999H3.8C4.02092 11.9999 4.2 11.8208 4.2 11.5999C4.2 11.379 4.02092 11.1999 3.8 11.1999H2.09412C1.3794 11.1999 0.8 10.6205 0.8 9.90578C0.8 8.41136 2.01146 7.1999 3.50588 7.1999H6.09412C7.58854 7.1999 8.8 8.41136 8.8 9.90578C8.8 10.6205 8.2206 11.1999 7.50588 11.1999H5.8C5.57908 11.1999 5.4 11.379 5.4 11.5999C5.4 11.8208 5.57908 11.9999 5.8 11.9999H7.50588C8.66244 11.9999 9.6 11.0623 9.6 9.90578C9.6 7.96954 8.03036 6.3999 6.09412 6.3999H3.50588Z" fill="#818181"/>
</svg>
