<svg width="30" height="31" viewBox="0 0 30 31" fill="none" xmlns="http://www.w3.org/2000/svg">
<path d="M26.3081 1.14535H24.095C24.0601 0.507752 23.5368 0 22.8905 0C22.2442 0 21.7209 0.507752 21.686 1.14535H16.2045C16.1696 0.507752 15.6463 0 15 0C14.3537 0 13.8304 0.507752 13.7955 1.14535H11.5407C10.8915 1.14535 10.3052 1.625 10.2616 2.26938C10.2146 2.96415 10.7699 3.56783 11.468 3.56783H13.7955C13.8304 4.20543 14.3537 4.71318 15 4.71318C15.6463 4.71318 16.1696 4.20543 16.2045 3.56783H21.686C21.7209 4.20543 22.2442 4.71318 22.8905 4.71318C23.5368 4.71318 24.0601 4.20543 24.095 3.56783H26.3081C27.0107 3.56783 27.5775 4.13469 27.5775 4.83721V7.71996H2.42248V4.83721C2.42248 4.13469 2.98934 3.56783 3.69186 3.56783H5.90504C5.93992 4.20543 6.46318 4.71318 7.1095 4.71318C7.75581 4.71318 8.27907 4.20543 8.3188 3.56783V3.52277C8.3188 3.5155 8.32074 3.50921 8.32074 3.50194V1.21124C8.32074 1.20397 8.3188 1.19767 8.3188 1.19041C8.3188 1.19041 8.3188 1.14535 8.31444 1.14535C8.27955 0.507752 7.7563 0 7.10998 0C6.46366 0 5.93992 0.507752 5.90504 1.14535H3.69186C1.65213 1.14535 0 2.79748 0 4.83721V26.6638C0 28.7035 1.65213 30.3556 3.69186 30.3556H26.3081C28.3479 30.3556 30 28.7035 30 26.6638V13.2917C30 12.9704 29.8724 12.6623 29.6452 12.4352C29.4181 12.208 29.11 12.0804 28.7888 12.0804C28.4679 12.0817 28.1606 12.2097 27.9337 12.4366C27.7068 12.6635 27.5788 12.9708 27.5775 13.2917V26.6638C27.5775 27.3663 27.0107 27.9331 26.3081 27.9331H3.69186C2.98934 27.9331 2.42248 27.3663 2.42248 26.6638V10.1424H28.3333C29.2539 10.1424 30 9.39632 30 8.47578V4.83721C30 2.79748 28.3479 1.14535 26.3081 1.14535Z" fill="#ED1C24"/>
<path d="M14.4909 25.1502C14.2917 25.1501 14.0956 25.101 13.92 25.007C13.7443 24.9131 13.5946 24.7773 13.4839 24.6117C13.3733 24.446 13.3052 24.2557 13.2857 24.0575C13.2662 23.8592 13.2959 23.6593 13.3722 23.4753L16.9594 15.2936H12.473C12.1517 15.2936 11.8436 15.166 11.6165 14.9388C11.3893 14.7117 11.2617 14.4036 11.2617 14.0823C11.2617 13.7611 11.3893 13.453 11.6165 13.2259C11.8436 12.9987 12.1517 12.8711 12.473 12.8711H18.7714C18.9705 12.8712 19.1666 12.9203 19.3421 13.0142C19.5177 13.1081 19.6675 13.2439 19.7781 13.4095C19.8887 13.575 19.9568 13.7653 19.9763 13.9635C19.9959 14.1616 19.9663 14.3615 19.8901 14.5455L15.6106 24.4016C15.5189 24.6231 15.3635 24.8125 15.1642 24.9457C14.9649 25.0789 14.7306 25.1501 14.4909 25.1502Z" fill="#ED1C24"/>
</svg>
