<svg width="28" height="28" viewBox="0 0 28 28" fill="none" xmlns="http://www.w3.org/2000/svg">
<path d="M21.5 27.9997C19.57 27.9997 18 26.4297 18 24.4997V11.3668C17.0789 10.7816 16.3207 9.97298 15.7962 9.01604C15.2717 8.05911 14.9978 6.98502 15 5.89375C14.9978 4.69603 15.3279 3.52117 15.9536 2.49986C16.5792 1.47854 17.476 0.65082 18.544 0.108756C18.6966 0.0312008 18.8665 -0.00597266 19.0375 0.000780219C19.2086 0.0075331 19.375 0.0579871 19.521 0.147331C19.667 0.236675 19.7877 0.36193 19.8716 0.511153C19.9554 0.660375 19.9996 0.828589 20 0.999755V5.32275L21.5 5.92275L23 5.32275V0.999755C23.0004 0.828589 23.0446 0.660375 23.1285 0.511153C23.2123 0.36193 23.333 0.236675 23.479 0.147331C23.625 0.0579871 23.7914 0.0075331 23.9625 0.000780219C24.1335 -0.00597266 24.3034 0.0312008 24.456 0.108756C25.5241 0.651078 26.4208 1.479 27.0464 2.50046C27.6721 3.52193 28.0022 4.69691 28 5.89475C28.002 6.98596 27.728 8.05995 27.2035 9.01684C26.6789 9.97373 25.921 10.7824 25 11.3678V24.4997C25 26.4297 23.43 27.9997 21.5 27.9997ZM18 3.06575C17.363 3.85075 17 4.84075 17 5.89375C17 7.58775 17.941 9.12275 19.456 9.89875C19.6198 9.98268 19.7573 10.1102 19.8532 10.2672C19.9492 10.4242 20 10.6047 20 10.7888V24.4997C20 25.3267 20.673 25.9997 21.5 25.9997C22.327 25.9997 23 25.3267 23 24.4997V10.7888C23 10.6047 23.0508 10.4242 23.1468 10.2672C23.2428 10.1102 23.3802 9.98268 23.544 9.89875C24.2836 9.52371 24.9047 8.95093 25.3383 8.24408C25.7718 7.53722 26.0009 6.72399 26 5.89475C26.0019 4.86513 25.6487 3.86635 25 3.06675V5.99975C25 6.40875 24.751 6.77575 24.372 6.92875L21.872 7.92875C21.6337 8.0248 21.3674 8.0248 21.129 7.92875L18.629 6.92875C18.4435 6.85433 18.2844 6.72609 18.1723 6.56054C18.0602 6.39499 18.0002 6.19968 18 5.99975V3.06575Z" fill="#ED1C24"/>
<path d="M15.074 28H12.927C12.4238 27.9981 11.9396 27.8074 11.5703 27.4655C11.201 27.1236 10.9736 26.6556 10.933 26.154L10.807 24.519C10.1198 24.3103 9.45493 24.0343 8.822 23.695L7.576 24.762C7.19284 25.0881 6.70122 25.2585 6.19843 25.2394C5.69565 25.2203 5.21835 25.0132 4.861 24.659L3.341 23.138C2.9868 22.7805 2.7796 22.3031 2.76034 21.8002C2.74109 21.2973 2.91118 20.8055 3.237 20.422L4.304 19.177C3.96467 18.5441 3.68867 17.8792 3.48 17.192L1.846 17.067C1.3445 17.0266 0.876448 16.7994 0.53456 16.4303C0.192673 16.0612 0.00188841 15.5771 0 15.074V12.926C0 11.887 0.811 11.011 1.847 10.932L3.481 10.807C3.689 10.12 3.965 9.456 4.305 8.822L3.237 7.575C2.91109 7.19143 2.74103 6.6995 2.76048 6.19655C2.77992 5.69359 2.98745 5.21626 3.342 4.859L4.86 3.34C5.21739 2.98559 5.69479 2.77824 6.19774 2.75899C6.7007 2.73973 7.19256 2.90996 7.576 3.236L8.822 4.303C9.45493 3.96367 10.1198 3.68766 10.807 3.479L10.933 1.844C10.9741 1.34294 11.2016 0.875513 11.5706 0.534086C11.9396 0.192659 12.4233 0.00207629 12.926 0H14C14.2652 0 14.5196 0.105357 14.7071 0.292893C14.8946 0.480429 15 0.734783 15 1C15 1.26522 14.8946 1.51957 14.7071 1.70711C14.5196 1.89464 14.2652 2 14 2H12.926L12.746 4.341C12.7295 4.55321 12.6458 4.75463 12.5069 4.91596C12.3681 5.07729 12.1814 5.19011 11.974 5.238C11.0057 5.46106 10.0816 5.8447 9.24 6.373C9.05959 6.48667 8.84744 6.53937 8.63482 6.52335C8.42219 6.50732 8.22033 6.42342 8.059 6.284L6.274 4.755L4.756 6.275L6.285 8.059C6.57 8.391 6.605 8.87 6.373 9.24C5.84547 10.082 5.46188 11.006 5.238 11.974C5.1902 12.1816 5.07728 12.3685 4.91572 12.5074C4.75417 12.6463 4.55244 12.7299 4.34 12.746L2 12.926V15.074L4.34 15.254C4.55239 15.2703 4.75404 15.3539 4.91556 15.4928C5.07709 15.6316 5.19005 15.8184 5.238 16.026C5.46106 16.9943 5.8447 17.9184 6.373 18.76C6.48603 18.9406 6.53846 19.1525 6.52263 19.3649C6.5068 19.5774 6.42354 19.7792 6.285 19.941L4.756 21.725L6.275 23.245L8.059 21.716C8.22056 21.577 8.42236 21.4934 8.63487 21.4774C8.84738 21.4614 9.05944 21.5138 9.24 21.627C10.088 22.157 11.008 22.539 11.974 22.762C12.1814 22.8099 12.3681 22.9227 12.5069 23.084C12.6458 23.2454 12.7295 23.4468 12.746 23.659L12.926 26H15.073C15.0821 25.8683 15.1172 25.7398 15.1763 25.6217C15.2353 25.5037 15.3172 25.3985 15.4171 25.3122C15.517 25.226 15.6329 25.1604 15.7583 25.1191C15.8837 25.0779 16.016 25.0619 16.1476 25.0721C16.2792 25.0823 16.4075 25.1184 16.525 25.1784C16.6426 25.2383 16.7472 25.321 16.8326 25.4216C16.9181 25.5221 16.9828 25.6386 17.023 25.7644C17.0633 25.8901 17.0782 26.0225 17.067 26.154C17.0264 26.6554 16.7991 27.1233 16.43 27.4652C16.061 27.807 15.5771 27.9979 15.074 28Z" fill="#ED1C24"/>
<path d="M7.00004 14.0004C6.99466 12.3444 7.57878 10.7405 8.64786 9.47571C9.71694 8.21095 11.2012 7.3679 12.835 7.09744C12.9646 7.07513 13.0973 7.07871 13.2254 7.10798C13.3536 7.13725 13.4747 7.19162 13.5817 7.26796C13.6887 7.3443 13.7796 7.44109 13.849 7.55274C13.9184 7.66439 13.965 7.78869 13.986 7.91844C14.0297 8.17994 13.9678 8.44807 13.8138 8.66391C13.6599 8.87974 13.4265 9.02561 13.165 9.06944C11.9985 9.26336 10.9391 9.86587 10.176 10.7692C9.41297 11.6726 8.99613 12.8179 9.00004 14.0004C9.00004 17.4534 12.43 19.8614 15.667 18.7164C15.9144 18.6378 16.1826 18.6584 16.415 18.7739C16.6474 18.8893 16.8258 19.0906 16.9126 19.3352C16.9993 19.5798 16.9875 19.8486 16.8798 20.0847C16.772 20.3208 16.5767 20.5057 16.335 20.6004C11.782 22.2114 7.00004 18.8164 7.00004 14.0004Z" fill="#ED1C24"/>
</svg>
