<svg width="30" height="33" viewBox="0 0 30 33" fill="none" xmlns="http://www.w3.org/2000/svg">
<path d="M29.6932 9.65784L15.375 0.112388C15.2637 0.0390735 15.1333 0 15 0C14.8667 0 14.7363 0.0390735 14.625 0.112388L0.306818 9.65784C0.213027 9.71961 0.135944 9.80358 0.0824179 9.90231C0.0288922 10.001 0.00058099 10.1115 0 10.2238V32.0419C0 32.2228 0.0718342 32.3962 0.1997 32.5241C0.327566 32.6519 0.500989 32.7238 0.681818 32.7238H4.77273C4.95356 32.7238 5.12698 32.6519 5.25485 32.5241C5.38271 32.3962 5.45455 32.2228 5.45455 32.0419V30.6783H24.5455V32.0419C24.5455 32.2228 24.6173 32.3962 24.7452 32.5241C24.873 32.6519 25.0464 32.7238 25.2273 32.7238H29.3182C29.499 32.7238 29.6724 32.6519 29.8003 32.5241C29.9282 32.3962 30 32.2228 30 32.0419V10.2238C29.9994 10.1115 29.9711 10.001 29.9176 9.90231C29.8641 9.80358 29.787 9.71961 29.6932 9.65784ZM24.5455 29.3147H5.45455V27.2692H24.5455V29.3147ZM24.5455 25.9056H5.45455V23.8601H24.5455V25.9056ZM24.5455 22.4965H5.45455V20.451H24.5455V22.4965ZM24.5455 19.0874H5.45455V17.0419H24.5455V19.0874ZM24.5455 15.6783H5.45455V13.6328H24.5455V15.6783ZM28.6364 31.3601H25.9091V12.951C25.9091 12.7702 25.8373 12.5968 25.7094 12.4689C25.5815 12.341 25.4081 12.2692 25.2273 12.2692H4.77273C4.5919 12.2692 4.41847 12.341 4.29061 12.4689C4.16274 12.5968 4.09091 12.7702 4.09091 12.951V31.3601H1.36364V10.5919L15 1.49648L28.6364 10.5919V31.3601Z" fill="#ED1C24"/>
</svg>
