<svg width="30" height="29" viewBox="0 0 30 29" fill="none" xmlns="http://www.w3.org/2000/svg">
<path d="M26.7568 12.0016V4.45946C26.7559 3.277 26.2858 2.14322 25.4497 1.30709C24.6135 0.470969 23.4798 0.000859033 22.2973 0H4.45946C3.277 0.000859033 2.14322 0.470969 1.30709 1.30709C0.470969 2.14322 0.000859033 3.277 0 4.45946V23.9189C0.000859033 25.1014 0.470969 26.2352 1.30709 27.0713C2.14322 27.9074 3.277 28.3775 4.45946 28.3784H20.6757C25.8162 28.3784 30 24.1946 30 19.0541C29.9993 17.7143 29.7091 16.3905 29.1494 15.1733C28.5896 13.9561 27.7734 12.8742 26.7568 12.0016ZM10.5405 2.43243H16.2162V6.08108C16.2162 6.1886 16.1735 6.29172 16.0975 6.36775C16.0214 6.44377 15.9183 6.48649 15.8108 6.48649H10.9459C10.8384 6.48649 10.7353 6.44377 10.6593 6.36775C10.5833 6.29172 10.5405 6.1886 10.5405 6.08108V2.43243ZM4.45946 25.9459C3.34216 25.9459 2.43243 25.0362 2.43243 23.9189V4.45946C2.43243 3.34216 3.34216 2.43243 4.45946 2.43243H8.10811V6.08108C8.10811 7.64595 9.38108 8.91892 10.9459 8.91892H15.8108C17.3757 8.91892 18.6486 7.64595 18.6486 6.08108V2.43243H22.2973C23.4146 2.43243 24.3243 3.34216 24.3243 4.45946V10.4741C23.1709 9.98199 21.9297 9.72878 20.6757 9.72973C15.5351 9.72973 11.3514 13.9135 11.3514 19.0541C11.3522 20.3534 11.6256 21.6381 12.1538 22.8252C12.682 24.0123 13.4533 25.0754 14.4178 25.9459H4.45946ZM20.6757 25.9459C16.8762 25.9459 13.7838 22.8535 13.7838 19.0541C13.7838 15.2546 16.8762 12.1622 20.6757 12.1622C24.4751 12.1622 27.5676 15.2546 27.5676 19.0541C27.5676 22.8535 24.4751 25.9459 20.6757 25.9459ZM24.9308 16.7578C25.1097 17.0262 25.1747 17.3547 25.1114 17.6709C25.0482 17.9872 24.8619 18.2654 24.5935 18.4443L19.7286 21.6876C19.4942 21.8425 19.2134 21.912 18.9337 21.8842C18.654 21.8565 18.3924 21.7332 18.193 21.5351L16.5714 19.9135C16.3432 19.6854 16.215 19.3759 16.215 19.0532C16.215 18.7306 16.3432 18.4211 16.5714 18.193C16.7995 17.9648 17.109 17.8366 17.4316 17.8366C17.7543 17.8366 18.0637 17.9648 18.2919 18.193L19.2081 19.1092L23.2427 16.4189C23.3755 16.3301 23.5246 16.2684 23.6813 16.2373C23.838 16.2062 23.9993 16.2063 24.1559 16.2377C24.3126 16.269 24.4615 16.3309 24.5942 16.4199C24.7269 16.5089 24.8407 16.6232 24.9292 16.7562L24.9308 16.7578Z" fill="#ED1C24"/>
</svg>
