<svg width="230" height="50" viewBox="0 0 230 50" fill="none" xmlns="http://www.w3.org/2000/svg">
<g clip-path="url(#clip0_203_44)">
<path d="M59.1009 20V5.45455H65.1662C66.2552 5.45455 67.1667 5.60843 67.9006 5.91619C68.6392 6.22396 69.1932 6.65483 69.5625 7.20881C69.9366 7.76278 70.1236 8.40436 70.1236 9.13352C70.1236 9.6875 70.0076 10.1823 69.7756 10.6179C69.5436 11.0488 69.224 11.4062 68.8168 11.6903C68.4096 11.9744 67.9384 12.1733 67.4034 12.2869V12.429C67.9905 12.4574 68.5327 12.616 69.0298 12.9048C69.5317 13.1937 69.9342 13.5961 70.2372 14.1122C70.5402 14.6236 70.6918 15.2296 70.6918 15.9304C70.6918 16.7116 70.4929 17.41 70.0952 18.0256C69.6974 18.6364 69.1222 19.1193 68.3693 19.4744C67.6165 19.8248 66.7027 20 65.6278 20H59.1009ZM62.6165 17.1662H64.7898C65.5521 17.1662 66.1132 17.0218 66.473 16.733C66.8376 16.4441 67.0199 16.0417 67.0199 15.5256C67.0199 15.1515 66.9323 14.8295 66.7571 14.5597C66.5819 14.285 66.3333 14.0743 66.0114 13.9276C65.6894 13.776 65.3035 13.7003 64.8537 13.7003H62.6165V17.1662ZM62.6165 11.4347H64.5625C64.946 11.4347 65.2869 11.3707 65.5852 11.2429C65.8835 11.1151 66.1155 10.9304 66.2812 10.6889C66.4517 10.4474 66.5369 10.1562 66.5369 9.81534C66.5369 9.32765 66.3641 8.94413 66.0185 8.66477C65.6728 8.38542 65.2064 8.24574 64.6193 8.24574H62.6165V11.4347ZM80.2443 9.81534C80.197 9.29451 79.9863 8.88968 79.6122 8.60085C79.2429 8.30729 78.715 8.16051 78.0284 8.16051C77.5739 8.16051 77.1951 8.2197 76.892 8.33807C76.589 8.45644 76.3617 8.61979 76.2102 8.82812C76.0587 9.03172 75.9806 9.2661 75.9759 9.53125C75.9664 9.74905 76.009 9.94081 76.1037 10.1065C76.2031 10.2723 76.3452 10.419 76.5298 10.5469C76.7192 10.67 76.9465 10.7789 77.2116 10.8736C77.4768 10.9683 77.7751 11.0511 78.1065 11.1222L79.3565 11.4062C80.0762 11.5625 80.7107 11.7708 81.2599 12.0312C81.8139 12.2917 82.2779 12.6018 82.652 12.9616C83.0308 13.3215 83.3172 13.7358 83.5114 14.2045C83.7055 14.6733 83.8049 15.1989 83.8097 15.7812C83.8049 16.6998 83.5729 17.4882 83.1136 18.1463C82.6544 18.8045 81.9938 19.3087 81.1321 19.6591C80.2751 20.0095 79.2405 20.1847 78.0284 20.1847C76.8116 20.1847 75.7509 20.0024 74.8466 19.6378C73.9422 19.2732 73.2391 18.7192 72.7372 17.9759C72.2353 17.2325 71.9773 16.2926 71.9631 15.1562H75.3295C75.358 15.625 75.4834 16.0156 75.706 16.3281C75.9285 16.6406 76.2339 16.8774 76.6222 17.0384C77.0152 17.1993 77.4697 17.2798 77.9858 17.2798C78.4593 17.2798 78.8617 17.2159 79.1932 17.0881C79.5294 16.9602 79.7874 16.7827 79.9673 16.5554C80.1473 16.3281 80.2396 16.0677 80.2443 15.7741C80.2396 15.4995 80.1544 15.2652 79.9886 15.071C79.8229 14.8722 79.5672 14.7017 79.2216 14.5597C78.8807 14.4129 78.4451 14.2779 77.9148 14.1548L76.3949 13.7997C75.1354 13.5109 74.1435 13.0445 73.419 12.4006C72.6946 11.7519 72.3348 10.8759 72.3395 9.77273C72.3348 8.87311 72.5762 8.08475 73.0639 7.40767C73.5516 6.73059 74.2263 6.20265 75.0881 5.82386C75.9498 5.44508 76.9323 5.25568 78.0355 5.25568C79.1624 5.25568 80.1402 5.44744 80.9688 5.83097C81.8021 6.20975 82.4484 6.74242 82.9077 7.42898C83.367 8.11553 83.6013 8.91098 83.6108 9.81534H80.2443ZM85.5852 20V5.45455H91.5938C92.6828 5.45455 93.6226 5.65104 94.4134 6.04403C95.2088 6.43229 95.822 6.991 96.2528 7.72017C96.6837 8.4446 96.8991 9.30398 96.8991 10.2983C96.8991 11.3068 96.679 12.1638 96.2386 12.8693C95.7983 13.5701 95.1733 14.1051 94.3636 14.4744C93.554 14.839 92.5952 15.0213 91.4872 15.0213H87.6875V12.2514H90.8338C91.3641 12.2514 91.8068 12.1828 92.1619 12.0455C92.5218 11.9034 92.794 11.6903 92.9787 11.4062C93.1634 11.1174 93.2557 10.7481 93.2557 10.2983C93.2557 9.84848 93.1634 9.4768 92.9787 9.18324C92.794 8.88494 92.5218 8.66241 92.1619 8.51562C91.8021 8.36411 91.3594 8.28835 90.8338 8.28835H89.1009V20H85.5852ZM93.7741 13.3523L97.3963 20H93.5611L90.0099 13.3523H93.7741ZM112.556 12.7273C112.556 14.3277 112.248 15.6842 111.633 16.7969C111.017 17.9096 110.184 18.7547 109.133 19.3324C108.086 19.91 106.912 20.1989 105.61 20.1989C104.303 20.1989 103.127 19.9077 102.08 19.3253C101.034 18.7429 100.203 17.8977 99.5874 16.7898C98.9766 15.6771 98.6712 14.3229 98.6712 12.7273C98.6712 11.1269 98.9766 9.77036 99.5874 8.65767C100.203 7.54498 101.034 6.69981 102.08 6.12216C103.127 5.54451 104.303 5.25568 105.61 5.25568C106.912 5.25568 108.086 5.54451 109.133 6.12216C110.184 6.69981 111.017 7.54498 111.633 8.65767C112.248 9.77036 112.556 11.1269 112.556 12.7273ZM108.962 12.7273C108.962 11.7803 108.827 10.9801 108.558 10.3267C108.292 9.67329 107.909 9.1785 107.407 8.84233C106.91 8.50615 106.311 8.33807 105.61 8.33807C104.914 8.33807 104.315 8.50615 103.813 8.84233C103.311 9.1785 102.925 9.67329 102.656 10.3267C102.39 10.9801 102.258 11.7803 102.258 12.7273C102.258 13.6742 102.39 14.4744 102.656 15.1278C102.925 15.7812 103.311 16.276 103.813 16.6122C104.315 16.9484 104.914 17.1165 105.61 17.1165C106.311 17.1165 106.91 16.9484 107.407 16.6122C107.909 16.276 108.292 15.7812 108.558 15.1278C108.827 14.4744 108.962 13.6742 108.962 12.7273ZM133.018 10.3622H130.362C130.286 9.92661 130.146 9.54072 129.942 9.20455C129.739 8.86364 129.486 8.57481 129.183 8.33807C128.879 8.10133 128.534 7.92377 128.146 7.8054C127.762 7.68229 127.348 7.62074 126.903 7.62074C126.112 7.62074 125.411 7.8196 124.8 8.21733C124.19 8.61032 123.711 9.18797 123.366 9.95028C123.02 10.7079 122.847 11.6335 122.847 12.7273C122.847 13.84 123.02 14.7775 123.366 15.5398C123.716 16.2973 124.194 16.8703 124.8 17.2585C125.411 17.642 126.11 17.8338 126.896 17.8338C127.331 17.8338 127.738 17.777 128.117 17.6634C128.501 17.545 128.844 17.3722 129.147 17.1449C129.455 16.9176 129.713 16.6383 129.921 16.3068C130.134 15.9754 130.281 15.5966 130.362 15.1705L133.018 15.1847C132.918 15.8759 132.703 16.5246 132.371 17.1307C132.045 17.7367 131.616 18.2718 131.086 18.7358C130.556 19.1951 129.935 19.5549 129.225 19.8153C128.515 20.071 127.727 20.1989 126.86 20.1989C125.582 20.1989 124.441 19.9029 123.437 19.3111C122.433 18.7192 121.642 17.8646 121.065 16.7472C120.487 15.6297 120.198 14.2898 120.198 12.7273C120.198 11.16 120.489 9.82008 121.072 8.70739C121.654 7.58996 122.447 6.73532 123.451 6.14347C124.455 5.55161 125.591 5.25568 126.86 5.25568C127.67 5.25568 128.423 5.36932 129.119 5.59659C129.815 5.82386 130.435 6.15767 130.979 6.59801C131.524 7.03362 131.971 7.56866 132.322 8.20312C132.677 8.83286 132.909 9.55256 133.018 10.3622ZM138.456 20.2202C137.765 20.2202 137.142 20.0971 136.588 19.8509C136.039 19.5999 135.604 19.2306 135.282 18.7429C134.964 18.2552 134.806 17.6539 134.806 16.9389C134.806 16.3234 134.919 15.8144 135.147 15.4119C135.374 15.0095 135.684 14.6875 136.077 14.446C136.47 14.2045 136.913 14.0223 137.405 13.8991C137.902 13.7713 138.416 13.679 138.946 13.6222C139.586 13.5559 140.104 13.4967 140.502 13.4446C140.9 13.3878 141.188 13.3026 141.368 13.1889C141.553 13.0705 141.645 12.8883 141.645 12.642V12.5994C141.645 12.0644 141.487 11.6501 141.169 11.3565C140.852 11.063 140.395 10.9162 139.799 10.9162C139.169 10.9162 138.669 11.0535 138.3 11.3281C137.935 11.6027 137.689 11.9271 137.561 12.3011L135.161 11.9602C135.35 11.2973 135.663 10.7434 136.098 10.2983C136.534 9.84848 137.067 9.51231 137.696 9.28977C138.326 9.0625 139.022 8.94886 139.784 8.94886C140.31 8.94886 140.833 9.01042 141.354 9.13352C141.875 9.25663 142.351 9.46023 142.782 9.74432C143.212 10.0237 143.558 10.4048 143.819 10.8878C144.084 11.3707 144.216 11.9744 144.216 12.6989V20H141.745V18.5014H141.659C141.503 18.8045 141.283 19.0885 140.999 19.3537C140.72 19.6141 140.367 19.8248 139.941 19.9858C139.519 20.142 139.025 20.2202 138.456 20.2202ZM139.124 18.331C139.64 18.331 140.087 18.2292 140.466 18.0256C140.845 17.8172 141.136 17.5426 141.34 17.2017C141.548 16.8608 141.652 16.4891 141.652 16.0866V14.8011C141.572 14.8674 141.435 14.929 141.24 14.9858C141.051 15.0426 140.838 15.0923 140.601 15.1349C140.364 15.1776 140.13 15.2154 139.898 15.2486C139.666 15.2817 139.465 15.3101 139.294 15.3338C138.911 15.3859 138.568 15.4711 138.265 15.5895C137.962 15.7079 137.722 15.8736 137.547 16.0866C137.372 16.295 137.284 16.5649 137.284 16.8963C137.284 17.3698 137.457 17.7273 137.803 17.9688C138.149 18.2102 138.589 18.331 139.124 18.331ZM149.373 5.45455V20H146.801V5.45455H149.373ZM152.016 20V9.09091H154.587V20H152.016ZM153.309 7.54261C152.902 7.54261 152.551 7.40767 152.258 7.13778C151.964 6.86316 151.817 6.53409 151.817 6.15057C151.817 5.76231 151.964 5.43324 152.258 5.16335C152.551 4.88873 152.902 4.75142 153.309 4.75142C153.721 4.75142 154.071 4.88873 154.36 5.16335C154.654 5.43324 154.8 5.76231 154.8 6.15057C154.8 6.53409 154.654 6.86316 154.36 7.13778C154.071 7.40767 153.721 7.54261 153.309 7.54261ZM157.345 20V5.45455H159.916V10.8949H160.022C160.155 10.6297 160.342 10.348 160.583 10.0497C160.825 9.74669 161.152 9.48864 161.564 9.27557C161.975 9.05777 162.501 8.94886 163.14 8.94886C163.983 8.94886 164.743 9.1643 165.42 9.59517C166.102 10.0213 166.642 10.6534 167.039 11.4915C167.442 12.3248 167.643 13.3475 167.643 14.5597C167.643 15.7576 167.447 16.7756 167.054 17.6136C166.661 18.4517 166.126 19.0909 165.449 19.5312C164.771 19.9716 164.004 20.1918 163.147 20.1918C162.522 20.1918 162.004 20.0876 161.592 19.8793C161.18 19.6709 160.849 19.42 160.598 19.1264C160.351 18.8281 160.16 18.5464 160.022 18.2812H159.873V20H157.345ZM159.866 14.5455C159.866 15.2509 159.966 15.8688 160.164 16.3991C160.368 16.9295 160.659 17.3437 161.038 17.642C161.422 17.9356 161.886 18.0824 162.43 18.0824C162.998 18.0824 163.474 17.9309 163.858 17.6278C164.241 17.3201 164.53 16.901 164.724 16.3707C164.923 15.8357 165.022 15.2273 165.022 14.5455C165.022 13.8684 164.925 13.267 164.731 12.7415C164.537 12.2159 164.248 11.804 163.865 11.5057C163.481 11.2074 163.003 11.0582 162.43 11.0582C161.881 11.0582 161.414 11.2027 161.031 11.4915C160.647 11.7803 160.356 12.1851 160.157 12.706C159.963 13.2268 159.866 13.84 159.866 14.5455ZM169.829 20V9.09091H172.322V10.9091H172.435C172.634 10.2794 172.975 9.79403 173.458 9.45312C173.946 9.10748 174.502 8.93466 175.127 8.93466C175.269 8.93466 175.428 8.94176 175.603 8.95597C175.783 8.96544 175.932 8.98201 176.05 9.00568V11.3707C175.942 11.3329 175.769 11.2997 175.532 11.2713C175.3 11.2382 175.075 11.2216 174.857 11.2216C174.388 11.2216 173.967 11.3234 173.593 11.527C173.224 11.7259 172.933 12.0028 172.719 12.358C172.506 12.7131 172.4 13.1226 172.4 13.5866V20H169.829ZM180.702 20.2202C180.011 20.2202 179.388 20.0971 178.835 19.8509C178.285 19.5999 177.85 19.2306 177.528 18.7429C177.21 18.2552 177.052 17.6539 177.052 16.9389C177.052 16.3234 177.165 15.8144 177.393 15.4119C177.62 15.0095 177.93 14.6875 178.323 14.446C178.716 14.2045 179.159 14.0223 179.651 13.8991C180.148 13.7713 180.662 13.679 181.192 13.6222C181.832 13.5559 182.35 13.4967 182.748 13.4446C183.146 13.3878 183.434 13.3026 183.614 13.1889C183.799 13.0705 183.891 12.8883 183.891 12.642V12.5994C183.891 12.0644 183.733 11.6501 183.415 11.3565C183.098 11.063 182.641 10.9162 182.045 10.9162C181.415 10.9162 180.915 11.0535 180.546 11.3281C180.182 11.6027 179.935 11.9271 179.808 12.3011L177.407 11.9602C177.596 11.2973 177.909 10.7434 178.344 10.2983C178.78 9.84848 179.313 9.51231 179.942 9.28977C180.572 9.0625 181.268 8.94886 182.031 8.94886C182.556 8.94886 183.079 9.01042 183.6 9.13352C184.121 9.25663 184.597 9.46023 185.028 9.74432C185.459 10.0237 185.804 10.4048 186.065 10.8878C186.33 11.3707 186.462 11.9744 186.462 12.6989V20H183.991V18.5014H183.906C183.749 18.8045 183.529 19.0885 183.245 19.3537C182.966 19.6141 182.613 19.8248 182.187 19.9858C181.765 20.142 181.271 20.2202 180.702 20.2202ZM181.37 18.331C181.886 18.331 182.334 18.2292 182.712 18.0256C183.091 17.8172 183.382 17.5426 183.586 17.2017C183.794 16.8608 183.898 16.4891 183.898 16.0866V14.8011C183.818 14.8674 183.681 14.929 183.487 14.9858C183.297 15.0426 183.084 15.0923 182.847 15.1349C182.611 15.1776 182.376 15.2154 182.144 15.2486C181.912 15.2817 181.711 15.3101 181.54 15.3338C181.157 15.3859 180.814 15.4711 180.511 15.5895C180.208 15.7079 179.969 15.8736 179.793 16.0866C179.618 16.295 179.531 16.5649 179.531 16.8963C179.531 17.3698 179.703 17.7273 180.049 17.9688C180.395 18.2102 180.835 18.331 181.37 18.331ZM194.495 9.09091V11.0795H188.224V9.09091H194.495ZM189.772 6.47727H192.343V16.7188C192.343 17.0644 192.395 17.3295 192.499 17.5142C192.608 17.6941 192.75 17.8172 192.925 17.8835C193.101 17.9498 193.295 17.983 193.508 17.983C193.669 17.983 193.816 17.9711 193.948 17.9474C194.085 17.9238 194.19 17.9025 194.261 17.8835L194.694 19.8935C194.557 19.9408 194.36 19.9929 194.104 20.0497C193.853 20.1065 193.546 20.1397 193.181 20.1491C192.537 20.1681 191.957 20.071 191.441 19.858C190.925 19.6402 190.515 19.304 190.212 18.8494C189.914 18.3949 189.767 17.8267 189.772 17.1449V6.47727ZM196.645 20V9.09091H199.216V20H196.645ZM197.938 7.54261C197.531 7.54261 197.18 7.40767 196.887 7.13778C196.593 6.86316 196.446 6.53409 196.446 6.15057C196.446 5.76231 196.593 5.43324 196.887 5.16335C197.18 4.88873 197.531 4.75142 197.938 4.75142C198.35 4.75142 198.7 4.88873 198.989 5.16335C199.283 5.43324 199.429 5.76231 199.429 6.15057C199.429 6.53409 199.283 6.86316 198.989 7.13778C198.7 7.40767 198.35 7.54261 197.938 7.54261ZM206.619 20.2131C205.553 20.2131 204.63 19.9787 203.849 19.5099C203.067 19.0412 202.461 18.3854 202.031 17.5426C201.604 16.6998 201.391 15.715 201.391 14.5881C201.391 13.4612 201.604 12.474 202.031 11.6264C202.461 10.7789 203.067 10.1207 203.849 9.65199C204.63 9.18324 205.553 8.94886 206.619 8.94886C207.684 8.94886 208.607 9.18324 209.388 9.65199C210.17 10.1207 210.773 10.7789 211.2 11.6264C211.63 12.474 211.846 13.4612 211.846 14.5881C211.846 15.715 211.63 16.6998 211.2 17.5426C210.773 18.3854 210.17 19.0412 209.388 19.5099C208.607 19.9787 207.684 20.2131 206.619 20.2131ZM206.633 18.1534C207.21 18.1534 207.693 17.9948 208.082 17.6776C208.47 17.3556 208.759 16.9247 208.948 16.3849C209.142 15.8452 209.239 15.2438 209.239 14.581C209.239 13.9134 209.142 13.3097 208.948 12.7699C208.759 12.2254 208.47 11.7921 208.082 11.4702C207.693 11.1482 207.21 10.9872 206.633 10.9872C206.041 10.9872 205.549 11.1482 205.156 11.4702C204.767 11.7921 204.476 12.2254 204.282 12.7699C204.093 13.3097 203.998 13.9134 203.998 14.581C203.998 15.2438 204.093 15.8452 204.282 16.3849C204.476 16.9247 204.767 17.3556 205.156 17.6776C205.549 17.9948 206.041 18.1534 206.633 18.1534ZM216.599 13.608V20H214.028V9.09091H216.485V10.9446H216.613C216.864 10.3338 217.264 9.84848 217.814 9.48864C218.368 9.12879 219.052 8.94886 219.866 8.94886C220.619 8.94886 221.275 9.10985 221.833 9.43182C222.397 9.75379 222.833 10.2202 223.14 10.831C223.453 11.4418 223.607 12.1828 223.602 13.054V20H221.031V13.4517C221.031 12.7225 220.842 12.152 220.463 11.7401C220.089 11.3281 219.57 11.1222 218.907 11.1222C218.458 11.1222 218.057 11.2216 217.707 11.4205C217.361 11.6146 217.089 11.8963 216.89 12.2656C216.696 12.6349 216.599 13.0824 216.599 13.608ZM63.6676 44.2131C62.6733 44.2131 61.8187 44.0331 61.1037 43.6733C60.3887 43.3134 59.8371 42.8281 59.4489 42.2173C59.0653 41.6018 58.8736 40.9081 58.8736 40.1364C58.8736 39.554 58.992 39.0379 59.2287 38.5881C59.4702 38.1383 59.8016 37.7216 60.223 37.3381C60.6491 36.9545 61.1416 36.5734 61.7003 36.1946L64.2784 34.4403C64.6572 34.1941 64.9437 33.9337 65.1378 33.6591C65.3366 33.3845 65.4361 33.0625 65.4361 32.6932C65.4361 32.3807 65.3035 32.0848 65.0384 31.8054C64.7779 31.526 64.4181 31.3864 63.9588 31.3864C63.651 31.3864 63.3788 31.4598 63.142 31.6065C62.91 31.7486 62.7277 31.9356 62.5952 32.1676C62.4673 32.3996 62.4034 32.6458 62.4034 32.9062C62.4034 33.2235 62.491 33.5455 62.6662 33.8722C62.8461 34.1989 63.0781 34.5374 63.3622 34.8878C63.651 35.2382 63.9588 35.6098 64.2855 36.0028L71.1108 44H68.3267L62.6591 37.5085C62.2377 37.0161 61.8305 36.5308 61.4375 36.0526C61.0492 35.5743 60.7296 35.0772 60.4787 34.5611C60.2325 34.0402 60.1094 33.4768 60.1094 32.8707C60.1094 32.1842 60.268 31.571 60.5852 31.0312C60.9025 30.4867 61.3452 30.0582 61.9134 29.7457C62.4863 29.4332 63.1563 29.277 63.9233 29.277C64.6903 29.277 65.3485 29.4285 65.8977 29.7315C66.447 30.0346 66.8707 30.437 67.169 30.9389C67.4673 31.4408 67.6165 31.9877 67.6165 32.5795C67.6165 33.2661 67.446 33.8816 67.1051 34.4261C66.7642 34.9659 66.2907 35.456 65.6847 35.8963L62.7443 38.0483C62.2614 38.3987 61.9157 38.7538 61.7074 39.1136C61.4991 39.4687 61.3949 39.7718 61.3949 40.0227C61.3949 40.4062 61.492 40.7543 61.6861 41.0668C61.8802 41.3793 62.1525 41.6302 62.5028 41.8196C62.858 42.0043 63.2723 42.0966 63.7457 42.0966C64.2666 42.0966 64.7803 41.9806 65.2869 41.7486C65.7936 41.5118 66.2552 41.1757 66.6719 40.7401C67.0885 40.3045 67.42 39.7836 67.6662 39.1776C67.9124 38.5668 68.0355 37.8897 68.0355 37.1463H70.2443C70.2443 38.0649 70.1425 38.8651 69.9389 39.5469C69.7353 40.224 69.4725 40.7969 69.1506 41.2656C68.8286 41.7296 68.4877 42.1013 68.1278 42.3807C68.0142 42.4612 67.9053 42.5417 67.8011 42.6222C67.697 42.7027 67.5881 42.7831 67.4744 42.8636C66.9631 43.3277 66.3641 43.6686 65.6776 43.8864C64.9957 44.1042 64.3258 44.2131 63.6676 44.2131ZM77.6573 44V29.4545H83.1119C84.2293 29.4545 85.1668 29.6487 85.9244 30.0369C86.6867 30.4252 87.262 30.9697 87.6502 31.6705C88.0432 32.3665 88.2397 33.1785 88.2397 34.1065C88.2397 35.0393 88.0408 35.849 87.6431 36.5355C87.2501 37.2173 86.6701 37.7453 85.9031 38.1193C85.136 38.4886 84.1938 38.6733 83.0763 38.6733H79.1914V36.4858H82.7212C83.3746 36.4858 83.9097 36.3958 84.3263 36.2159C84.743 36.0312 85.0508 35.7637 85.2496 35.4134C85.4532 35.0582 85.555 34.6226 85.555 34.1065C85.555 33.5904 85.4532 33.1501 85.2496 32.7855C85.046 32.4162 84.7359 32.1368 84.3192 31.9474C83.9026 31.7533 83.3652 31.6562 82.707 31.6562H80.2923V44H77.6573ZM85.1715 37.4091L88.7724 44H85.832L82.2951 37.4091H85.1715ZM95.2248 44.2131C94.131 44.2131 93.1864 43.9858 92.391 43.5312C91.6003 43.072 90.9918 42.4233 90.5657 41.5852C90.1396 40.7424 89.9265 39.7505 89.9265 38.6094C89.9265 37.4872 90.1396 36.5024 90.5657 35.6548C90.9966 34.8026 91.5979 34.1397 92.3697 33.6662C93.1415 33.188 94.0482 32.9489 95.0898 32.9489C95.7622 32.9489 96.3967 33.0578 96.9933 33.2756C97.5946 33.4886 98.1249 33.8201 98.5842 34.2699C99.0482 34.7197 99.4128 35.2926 99.6779 35.9886C99.9431 36.6799 100.076 37.5038 100.076 38.4602V39.2486H91.1339V37.5156H97.6112C97.6064 37.0232 97.4999 36.5852 97.2915 36.2017C97.0832 35.8134 96.792 35.508 96.418 35.2855C96.0487 35.063 95.6178 34.9517 95.1254 34.9517C94.5998 34.9517 94.1381 35.0795 93.7404 35.3352C93.3427 35.5862 93.0326 35.9176 92.81 36.3295C92.5922 36.7367 92.4809 37.1842 92.4762 37.6719V39.1847C92.4762 39.8191 92.5922 40.3636 92.8242 40.8182C93.0562 41.268 93.3806 41.6136 93.7972 41.8551C94.2139 42.0919 94.7016 42.2102 95.2603 42.2102C95.6344 42.2102 95.9729 42.1581 96.2759 42.054C96.579 41.9451 96.8417 41.7865 97.0643 41.5781C97.2868 41.3698 97.4549 41.1117 97.5685 40.804L99.9691 41.0739C99.8176 41.7083 99.5288 42.2623 99.1026 42.7358C98.6812 43.2045 98.1415 43.5691 97.4833 43.8295C96.8252 44.0852 96.0723 44.2131 95.2248 44.2131ZM102.251 48.0909V33.0909H104.779V34.8949H104.928C105.061 34.6297 105.248 34.348 105.489 34.0497C105.731 33.7467 106.058 33.4886 106.469 33.2756C106.881 33.0578 107.407 32.9489 108.046 32.9489C108.889 32.9489 109.649 33.1643 110.326 33.5952C111.008 34.0213 111.548 34.6534 111.945 35.4915C112.348 36.3248 112.549 37.3475 112.549 38.5597C112.549 39.7576 112.353 40.7756 111.96 41.6136C111.567 42.4517 111.031 43.0909 110.354 43.5312C109.677 43.9716 108.91 44.1918 108.053 44.1918C107.428 44.1918 106.91 44.0876 106.498 43.8793C106.086 43.6709 105.754 43.42 105.504 43.1264C105.257 42.8281 105.066 42.5464 104.928 42.2812H104.822V48.0909H102.251ZM104.772 38.5455C104.772 39.2509 104.871 39.8688 105.07 40.3991C105.274 40.9295 105.565 41.3437 105.944 41.642C106.327 41.9356 106.791 42.0824 107.336 42.0824C107.904 42.0824 108.38 41.9309 108.763 41.6278C109.147 41.3201 109.436 40.901 109.63 40.3707C109.829 39.8357 109.928 39.2273 109.928 38.5455C109.928 37.8684 109.831 37.267 109.637 36.7415C109.443 36.2159 109.154 35.804 108.771 35.5057C108.387 35.2074 107.909 35.0582 107.336 35.0582C106.787 35.0582 106.32 35.2027 105.937 35.4915C105.553 35.7803 105.262 36.1851 105.063 36.706C104.869 37.2268 104.772 37.84 104.772 38.5455ZM117.89 44.2202C117.199 44.2202 116.576 44.0971 116.022 43.8509C115.473 43.5999 115.037 43.2306 114.715 42.7429C114.398 42.2552 114.239 41.6539 114.239 40.9389C114.239 40.3234 114.353 39.8144 114.58 39.4119C114.808 39.0095 115.118 38.6875 115.511 38.446C115.904 38.2045 116.346 38.0223 116.839 37.8991C117.336 37.7713 117.85 37.679 118.38 37.6222C119.019 37.5559 119.538 37.4967 119.935 37.4446C120.333 37.3878 120.622 37.3026 120.802 37.1889C120.987 37.0705 121.079 36.8883 121.079 36.642V36.5994C121.079 36.0644 120.92 35.6501 120.603 35.3565C120.286 35.063 119.829 34.9162 119.232 34.9162C118.603 34.9162 118.103 35.0535 117.734 35.3281C117.369 35.6027 117.123 35.9271 116.995 36.3011L114.594 35.9602C114.784 35.2973 115.096 34.7434 115.532 34.2983C115.968 33.8485 116.5 33.5123 117.13 33.2898C117.76 33.0625 118.456 32.9489 119.218 32.9489C119.744 32.9489 120.267 33.0104 120.788 33.1335C121.308 33.2566 121.784 33.4602 122.215 33.7443C122.646 34.0237 122.992 34.4048 123.252 34.8878C123.517 35.3707 123.65 35.9744 123.65 36.6989V44H121.178V42.5014H121.093C120.937 42.8045 120.717 43.0885 120.433 43.3537C120.153 43.6141 119.8 43.8248 119.374 43.9858C118.953 44.142 118.458 44.2202 117.89 44.2202ZM118.558 42.331C119.074 42.331 119.521 42.2292 119.9 42.0256C120.279 41.8172 120.57 41.5426 120.773 41.2017C120.982 40.8608 121.086 40.4891 121.086 40.0866V38.8011C121.005 38.8674 120.868 38.929 120.674 38.9858C120.485 39.0426 120.272 39.0923 120.035 39.1349C119.798 39.1776 119.564 39.2154 119.332 39.2486C119.1 39.2817 118.898 39.3101 118.728 39.3338C118.344 39.3859 118.001 39.4711 117.698 39.5895C117.395 39.7079 117.156 39.8736 116.981 40.0866C116.806 40.295 116.718 40.5649 116.718 40.8963C116.718 41.3698 116.891 41.7273 117.237 41.9688C117.582 42.2102 118.022 42.331 118.558 42.331ZM126.235 44V33.0909H128.806V44H126.235ZM127.528 31.5426C127.121 31.5426 126.77 31.4077 126.477 31.1378C126.183 30.8632 126.036 30.5341 126.036 30.1506C126.036 29.7623 126.183 29.4332 126.477 29.1634C126.77 28.8887 127.121 28.7514 127.528 28.7514C127.94 28.7514 128.29 28.8887 128.579 29.1634C128.872 29.4332 129.019 29.7623 129.019 30.1506C129.019 30.5341 128.872 30.8632 128.579 31.1378C128.29 31.4077 127.94 31.5426 127.528 31.5426ZM131.45 44V33.0909H133.943V34.9091H134.056C134.255 34.2794 134.596 33.794 135.079 33.4531C135.567 33.1075 136.123 32.9347 136.748 32.9347C136.89 32.9347 137.049 32.9418 137.224 32.956C137.404 32.9654 137.553 32.982 137.672 33.0057V35.3707C137.563 35.3329 137.39 35.2997 137.153 35.2713C136.921 35.2382 136.696 35.2216 136.478 35.2216C136.01 35.2216 135.588 35.3234 135.214 35.527C134.845 35.7259 134.554 36.0028 134.341 36.358C134.127 36.7131 134.021 37.1226 134.021 37.5866V44H131.45ZM144.341 48.0909V33.0909H146.869V34.8949H147.018C147.151 34.6297 147.338 34.348 147.579 34.0497C147.821 33.7467 148.147 33.4886 148.559 33.2756C148.971 33.0578 149.497 32.9489 150.136 32.9489C150.979 32.9489 151.739 33.1643 152.416 33.5952C153.098 34.0213 153.637 34.6534 154.035 35.4915C154.438 36.3248 154.639 37.3475 154.639 38.5597C154.639 39.7576 154.442 40.7756 154.049 41.6136C153.656 42.4517 153.121 43.0909 152.444 43.5312C151.767 43.9716 151 44.1918 150.143 44.1918C149.518 44.1918 149 44.0876 148.588 43.8793C148.176 43.6709 147.844 43.42 147.593 43.1264C147.347 42.8281 147.155 42.5464 147.018 42.2812H146.912V48.0909H144.341ZM146.862 38.5455C146.862 39.2509 146.961 39.8688 147.16 40.3991C147.364 40.9295 147.655 41.3437 148.034 41.642C148.417 41.9356 148.881 42.0824 149.426 42.0824C149.994 42.0824 150.47 41.9309 150.853 41.6278C151.237 41.3201 151.526 40.901 151.72 40.3707C151.919 39.8357 152.018 39.2273 152.018 38.5455C152.018 37.8684 151.921 37.267 151.727 36.7415C151.533 36.2159 151.244 35.804 150.86 35.5057C150.477 35.2074 149.999 35.0582 149.426 35.0582C148.877 35.0582 148.41 35.2027 148.027 35.4915C147.643 35.7803 147.352 36.1851 147.153 36.706C146.959 37.2268 146.862 37.84 146.862 38.5455ZM161.599 44.2131C160.534 44.2131 159.61 43.9787 158.829 43.5099C158.048 43.0412 157.442 42.3854 157.011 41.5426C156.585 40.6998 156.372 39.715 156.372 38.5881C156.372 37.4612 156.585 36.474 157.011 35.6264C157.442 34.7789 158.048 34.1207 158.829 33.652C159.61 33.1832 160.534 32.9489 161.599 32.9489C162.664 32.9489 163.588 33.1832 164.369 33.652C165.15 34.1207 165.754 34.7789 166.18 35.6264C166.611 36.474 166.826 37.4612 166.826 38.5881C166.826 39.715 166.611 40.6998 166.18 41.5426C165.754 42.3854 165.15 43.0412 164.369 43.5099C163.588 43.9787 162.664 44.2131 161.599 44.2131ZM161.613 42.1534C162.191 42.1534 162.674 41.9948 163.062 41.6776C163.45 41.3556 163.739 40.9247 163.929 40.3849C164.123 39.8452 164.22 39.2438 164.22 38.581C164.22 37.9134 164.123 37.3097 163.929 36.7699C163.739 36.2254 163.45 35.7921 163.062 35.4702C162.674 35.1482 162.191 34.9872 161.613 34.9872C161.021 34.9872 160.529 35.1482 160.136 35.4702C159.748 35.7921 159.457 36.2254 159.262 36.7699C159.073 37.3097 158.978 37.9134 158.978 38.581C158.978 39.2438 159.073 39.8452 159.262 40.3849C159.457 40.9247 159.748 41.3556 160.136 41.6776C160.529 41.9948 161.021 42.1534 161.613 42.1534ZM169.009 44V33.0909H171.501V34.9091H171.615C171.814 34.2794 172.155 33.794 172.638 33.4531C173.125 33.1075 173.682 32.9347 174.307 32.9347C174.449 32.9347 174.607 32.9418 174.783 32.956C174.963 32.9654 175.112 32.982 175.23 33.0057V35.3707C175.121 35.3329 174.948 35.2997 174.712 35.2713C174.48 35.2382 174.255 35.2216 174.037 35.2216C173.568 35.2216 173.147 35.3234 172.773 35.527C172.403 35.7259 172.112 36.0028 171.899 36.358C171.686 36.7131 171.58 37.1226 171.58 37.5866V44H169.009ZM182.972 33.0909V35.0795H176.7V33.0909H182.972ZM178.249 30.4773H180.82V40.7188C180.82 41.0644 180.872 41.3295 180.976 41.5142C181.085 41.6941 181.227 41.8172 181.402 41.8835C181.577 41.9498 181.771 41.983 181.984 41.983C182.145 41.983 182.292 41.9711 182.425 41.9474C182.562 41.9238 182.666 41.9025 182.737 41.8835L183.17 43.8935C183.033 43.9408 182.837 43.9929 182.581 44.0497C182.33 44.1065 182.022 44.1397 181.658 44.1491C181.014 44.1681 180.434 44.071 179.918 43.858C179.402 43.6402 178.992 43.304 178.689 42.8494C178.391 42.3949 178.244 41.8267 178.249 41.1449V30.4773ZM188.261 44.2202C187.57 44.2202 186.947 44.0971 186.393 43.8509C185.844 43.5999 185.408 43.2306 185.086 42.7429C184.769 42.2552 184.61 41.6539 184.61 40.9389C184.61 40.3234 184.724 39.8144 184.951 39.4119C185.179 39.0095 185.489 38.6875 185.882 38.446C186.275 38.2045 186.717 38.0223 187.21 37.8991C187.707 37.7713 188.221 37.679 188.751 37.6222C189.39 37.5559 189.909 37.4967 190.306 37.4446C190.704 37.3878 190.993 37.3026 191.173 37.1889C191.358 37.0705 191.45 36.8883 191.45 36.642V36.5994C191.45 36.0644 191.291 35.6501 190.974 35.3565C190.657 35.063 190.2 34.9162 189.603 34.9162C188.974 34.9162 188.474 35.0535 188.105 35.3281C187.74 35.6027 187.494 35.9271 187.366 36.3011L184.966 35.9602C185.155 35.2973 185.467 34.7434 185.903 34.2983C186.339 33.8485 186.871 33.5123 187.501 33.2898C188.131 33.0625 188.827 32.9489 189.589 32.9489C190.115 32.9489 190.638 33.0104 191.159 33.1335C191.68 33.2566 192.155 33.4602 192.586 33.7443C193.017 34.0237 193.363 34.4048 193.623 34.8878C193.888 35.3707 194.021 35.9744 194.021 36.6989V44H191.549V42.5014H191.464C191.308 42.8045 191.088 43.0885 190.804 43.3537C190.524 43.6141 190.172 43.8248 189.745 43.9858C189.324 44.142 188.829 44.2202 188.261 44.2202ZM188.929 42.331C189.445 42.331 189.892 42.2292 190.271 42.0256C190.65 41.8172 190.941 41.5426 191.145 41.2017C191.353 40.8608 191.457 40.4891 191.457 40.0866V38.8011C191.377 38.8674 191.239 38.929 191.045 38.9858C190.856 39.0426 190.643 39.0923 190.406 39.1349C190.169 39.1776 189.935 39.2154 189.703 39.2486C189.471 39.2817 189.27 39.3101 189.099 39.3338C188.716 39.3859 188.372 39.4711 188.069 39.5895C187.766 39.7079 187.527 39.8736 187.352 40.0866C187.177 40.295 187.089 40.5649 187.089 40.8963C187.089 41.3698 187.262 41.7273 187.608 41.9688C187.953 42.2102 188.394 42.331 188.929 42.331ZM199.177 29.4545V44H196.606V29.4545H199.177Z" fill="black"/>
<path d="M25 50C38.8071 50 50 38.8071 50 25C50 11.1929 38.8071 0 25 0C11.1929 0 0 11.1929 0 25C0 38.8071 11.1929 50 25 50Z" fill="#ED1C24"/>
<mask id="mask0_203_44" style="mask-type:luminance" maskUnits="userSpaceOnUse" x="9" y="9" width="31" height="32">
<path d="M39.3785 39.7832V10.4189H10.0142V39.7832H39.3785Z" fill="white" stroke="white"/>
</mask>
<g mask="url(#mask0_203_44)">
<path d="M38.1313 11.6665C36.3942 9.92953 33.578 9.92953 31.841 11.6665L28.6959 14.8117C26.9588 16.5487 26.9588 19.365 28.6959 21.102C30.4329 22.839 33.2491 22.839 34.9861 21.102L38.1313 17.9568C39.8683 16.2198 39.8683 13.4035 38.1313 11.6665Z" stroke="white" stroke-miterlimit="10" stroke-linecap="round" stroke-linejoin="round"/>
<path d="M36.8727 16.6988C35.8305 17.7411 34.1408 17.7411 33.0985 16.6988C32.0564 15.6567 32.0564 13.9669 33.0985 12.9247C34.1408 11.8825 35.8305 11.8825 36.8727 12.9247C37.915 13.9669 37.915 15.6567 36.8727 16.6988Z" stroke="white" stroke-miterlimit="10" stroke-linecap="round" stroke-linejoin="round"/>
<path d="M35.6148 15.4409C35.2674 15.7883 34.7042 15.7883 34.3567 15.4409C34.0093 15.0936 34.0093 14.5303 34.3567 14.1829C34.7042 13.8355 35.2674 13.8355 35.6148 14.1829C35.9622 14.5303 35.9622 15.0936 35.6148 15.4409Z" stroke="white" stroke-miterlimit="10" stroke-linecap="round" stroke-linejoin="round"/>
<path d="M29.9926 16.0308C29.9711 16.0092 29.9361 16.0092 29.9146 16.0308C29.8932 16.0523 29.893 16.0872 29.9145 16.1089C29.9361 16.1303 29.971 16.1304 29.9926 16.109C30.0141 16.0873 30.014 16.0523 29.9926 16.0308Z" fill="black" stroke="white"/>
<path d="M33.7665 19.8047C33.745 19.7832 33.71 19.7832 33.6885 19.8047C33.6671 19.8262 33.6668 19.8611 33.6884 19.8828C33.7099 19.9042 33.7449 19.9043 33.7665 19.8829C33.788 19.8612 33.7879 19.8262 33.7665 19.8047Z" fill="black" stroke="white"/>
<path d="M27.6915 19.5791L21.4231 25.8475L20.3329 26.211C19.8088 26.3856 19.3326 26.68 18.942 27.0705L10.7607 35.2519C9.72579 36.2868 9.68018 37.9727 10.6976 39.0247C11.737 40.0993 13.4508 40.1101 14.5037 39.0572L22.7162 30.8447C23.1068 30.4541 23.4011 29.9779 23.5758 29.4538L23.9392 28.3637L30.2076 22.0952" stroke="white" stroke-miterlimit="10" stroke-linecap="round" stroke-linejoin="round"/>
<path d="M23.9395 28.3634L21.4233 25.8472" stroke="white" stroke-miterlimit="10" stroke-linecap="round" stroke-linejoin="round"/>
<path d="M16.1112 32.417L14.5386 33.9896L15.7967 35.2476L20.1999 30.8444L18.9418 29.5864L17.3692 31.1589" stroke="white" stroke-miterlimit="10" stroke-linecap="round" stroke-linejoin="round"/>
<path d="M18.9419 27.0703L22.7161 30.8445" stroke="white" stroke-miterlimit="10" stroke-linecap="round" stroke-linejoin="round"/>
</g>
</g>
<defs>
<clipPath id="clip0_203_44">
<rect width="230" height="50" fill="white"/>
</clipPath>
</defs>
</svg>
