<svg width="300" height="300" viewBox="0 0 300 300" fill="none" xmlns="http://www.w3.org/2000/svg">
<circle cx="150" cy="150" r="150" fill="#F9FAFB"/>
<g clip-path="url(#clip0_201_11)">
<path d="M150 150.5C161.215 150.5 171.97 146.049 179.901 138.125C187.831 130.202 192.286 119.455 192.286 108.25C192.286 97.0446 187.831 86.2982 179.901 78.3747C171.97 70.4513 161.215 66 150 66C138.785 66 128.03 70.4513 120.099 78.3747C112.169 86.2982 107.714 97.0446 107.714 108.25C107.714 119.455 112.169 130.202 120.099 138.125C128.03 146.049 138.785 150.5 150 150.5ZM134.903 166.344C102.363 166.344 76 192.684 76 225.197C76 230.61 80.3938 235 85.8116 235H214.188C219.606 235 224 230.61 224 225.197C224 192.684 197.638 166.344 165.097 166.344H134.903Z" fill="black"/>
</g>
<defs>
<clipPath id="clip0_201_11">
<rect width="148" height="169" fill="white" transform="translate(76 66)"/>
</clipPath>
</defs>
</svg>
